<svg xmlns="http://www.w3.org/2000/svg" xmlns:xlink="http://www.w3.org/1999/xlink" width="500" zoomAndPan="magnify" viewBox="0 0 375 374.999991" height="500" preserveAspectRatio="xMidYMid meet" version="1.0"><defs><g/><clipPath id="8aad6759cf"><path d="M 279 36 L 318 36 L 318 74 L 279 74 Z M 279 36 " clip-rule="nonzero"/></clipPath><clipPath id="1ecdf34fa7"><path d="M 272.070312 42.109375 L 298.507812 17.675781 L 335.160156 57.328125 L 308.722656 81.765625 Z M 272.070312 42.109375 " clip-rule="nonzero"/></clipPath><clipPath id="e08f7d4860"><path d="M 272.070312 42.109375 L 298.507812 17.675781 L 335.160156 57.328125 L 308.722656 81.765625 Z M 272.070312 42.109375 " clip-rule="nonzero"/></clipPath><clipPath id="e4ac752082"><path d="M 298 18 L 337 18 L 337 57 L 298 57 Z M 298 18 " clip-rule="nonzero"/></clipPath><clipPath id="fa6b7832d8"><path d="M 291.136719 24.484375 L 317.574219 0.0507812 L 354.226562 39.703125 L 327.789062 64.140625 Z M 291.136719 24.484375 " clip-rule="nonzero"/></clipPath><clipPath id="ef8033617a"><path d="M 291.136719 24.484375 L 317.574219 0.0507812 L 354.226562 39.703125 L 327.789062 64.140625 Z M 291.136719 24.484375 " clip-rule="nonzero"/></clipPath><clipPath id="94bf578162"><rect x="0" width="250" y="0" height="375"/></clipPath></defs><g clip-path="url(#8aad6759cf)"><g clip-path="url(#1ecdf34fa7)"><g clip-path="url(#e08f7d4860)"><path fill="#969696" d="M 317.121094 37.710938 L 284.90625 36.28125 C 278.679688 36.003906 277.628906 48.125 285.003906 48.324219 L 305.050781 48.867188 L 303.519531 69.042969 C 303.054688 75.183594 315.035156 75.832031 315.375 69.589844 Z M 317.121094 37.710938 " fill-opacity="1" fill-rule="nonzero"/></g></g></g><g clip-path="url(#e4ac752082)"><g clip-path="url(#fa6b7832d8)"><g clip-path="url(#ef8033617a)"><path fill="#ffffff" d="M 336.191406 20.085938 L 303.972656 18.65625 C 297.75 18.378906 296.699219 30.5 304.074219 30.699219 L 324.121094 31.242188 L 322.589844 51.414062 C 322.125 57.558594 334.101562 58.207031 334.445312 51.964844 Z M 336.191406 20.085938 " fill-opacity="1" fill-rule="nonzero"/></g></g></g><g transform="matrix(1, 0, 0, 1, 49, 0)"><g clip-path="url(#94bf578162)"><g fill="#ffffff" fill-opacity="1"><g transform="translate(0.307422, 334.236824)"><g><path d="M 73.578125 -229.671875 L 73.578125 -145.03125 L 209.671875 -145.03125 C 217.046875 -145.03125 222.578125 -142.832031 226.265625 -138.4375 C 229.953125 -134.039062 231.796875 -129.289062 231.796875 -124.1875 C 231.796875 -119.082031 229.953125 -114.472656 226.265625 -110.359375 C 222.578125 -106.253906 217.046875 -104.203125 209.671875 -104.203125 L 73.578125 -104.203125 L 73.578125 -22.96875 C 73.578125 -15.59375 71.023438 -9.921875 65.921875 -5.953125 C 60.816406 -1.984375 55.289062 0 49.34375 0 C 43.101562 0 37.429688 -1.984375 32.328125 -5.953125 C 27.222656 -9.921875 24.671875 -15.453125 24.671875 -22.546875 L 24.671875 -245.828125 C 24.671875 -252.628906 27.429688 -258.507812 32.953125 -263.46875 C 38.484375 -268.4375 44.9375 -270.921875 52.3125 -270.921875 L 217.328125 -270.921875 C 224.984375 -270.921875 230.65625 -268.796875 234.34375 -264.546875 C 238.03125 -260.296875 239.875 -255.472656 239.875 -250.078125 C 239.875 -244.972656 238.03125 -240.296875 234.34375 -236.046875 C 230.65625 -231.796875 224.984375 -229.671875 217.328125 -229.671875 Z M 73.578125 -229.671875 "/></g></g></g></g></g></svg>