<svg xmlns="http://www.w3.org/2000/svg" xmlns:xlink="http://www.w3.org/1999/xlink" width="134" zoomAndPan="magnify" viewBox="0 0 100.5 30.000001" height="40" preserveAspectRatio="xMidYMid meet" version="1.0"><defs><g/><clipPath id="ff4f733941"><path d="M 69 9 L 80.40625 9 L 80.40625 23 L 69 23 Z M 69 9 " clip-rule="nonzero"/></clipPath><clipPath id="9018f30f81"><rect x="0" width="81" y="0" height="25"/></clipPath><clipPath id="77644df68e"><path d="M 86 5 L 94 5 L 94 14 L 86 14 Z M 86 5 " clip-rule="nonzero"/></clipPath><clipPath id="b498c4e423"><path d="M 84.5625 7.074219 L 89.890625 2.148438 L 97.28125 10.144531 L 91.953125 15.070312 Z M 84.5625 7.074219 " clip-rule="nonzero"/></clipPath><clipPath id="586af027e0"><path d="M 84.5625 7.074219 L 89.890625 2.148438 L 97.28125 10.144531 L 91.953125 15.070312 Z M 84.5625 7.074219 " clip-rule="nonzero"/></clipPath><clipPath id="783a5feda9"><path d="M 89 1 L 98 1 L 98 10 L 89 10 Z M 89 1 " clip-rule="nonzero"/></clipPath><clipPath id="712890d5dc"><path d="M 88.335938 3.15625 L 93.667969 -1.773438 L 101.054688 6.222656 L 95.726562 11.148438 Z M 88.335938 3.15625 " clip-rule="nonzero"/></clipPath><clipPath id="4d09fddc29"><path d="M 88.335938 3.15625 L 93.667969 -1.773438 L 101.054688 6.222656 L 95.726562 11.148438 Z M 88.335938 3.15625 " clip-rule="nonzero"/></clipPath></defs><g transform="matrix(1, 0, 0, 1, 9, 2)"><g clip-path="url(#9018f30f81)"><g fill="#2d2d2d" fill-opacity="1"><g transform="translate(1.401831, 19.020227)"><g><path d="M 0.140625 -2.890625 C 0.046875 -3.265625 0.132812 -3.5625 0.40625 -3.78125 C 0.675781 -4 0.976562 -4.109375 1.3125 -4.109375 C 1.5625 -4.109375 1.785156 -4.046875 1.984375 -3.921875 C 2.179688 -3.796875 2.304688 -3.609375 2.359375 -3.359375 C 2.503906 -2.953125 2.769531 -2.632812 3.15625 -2.40625 C 3.539062 -2.1875 3.976562 -2.035156 4.46875 -1.953125 C 4.957031 -1.867188 5.410156 -1.828125 5.828125 -1.828125 C 6.160156 -1.828125 6.523438 -1.847656 6.921875 -1.890625 C 7.316406 -1.941406 7.691406 -2.035156 8.046875 -2.171875 C 8.410156 -2.304688 8.707031 -2.492188 8.9375 -2.734375 C 9.164062 -2.984375 9.28125 -3.300781 9.28125 -3.6875 C 9.28125 -4.09375 9.109375 -4.390625 8.765625 -4.578125 C 8.429688 -4.773438 8.003906 -4.914062 7.484375 -5 C 6.960938 -5.082031 6.410156 -5.144531 5.828125 -5.1875 C 5.179688 -5.226562 4.523438 -5.300781 3.859375 -5.40625 C 3.203125 -5.507812 2.601562 -5.675781 2.0625 -5.90625 C 1.519531 -6.132812 1.082031 -6.46875 0.75 -6.90625 C 0.414062 -7.351562 0.25 -7.941406 0.25 -8.671875 C 0.25 -9.328125 0.414062 -9.890625 0.75 -10.359375 C 1.082031 -10.835938 1.515625 -11.222656 2.046875 -11.515625 C 2.585938 -11.816406 3.171875 -12.039062 3.796875 -12.1875 C 4.421875 -12.34375 5.035156 -12.421875 5.640625 -12.421875 C 6.304688 -12.421875 7.003906 -12.34375 7.734375 -12.1875 C 8.460938 -12.03125 9.128906 -11.753906 9.734375 -11.359375 C 10.347656 -10.972656 10.800781 -10.429688 11.09375 -9.734375 C 11.195312 -9.367188 11.125 -9.066406 10.875 -8.828125 C 10.625 -8.597656 10.332031 -8.484375 10 -8.484375 C 9.789062 -8.484375 9.59375 -8.53125 9.40625 -8.625 C 9.226562 -8.71875 9.097656 -8.847656 9.015625 -9.015625 C 8.859375 -9.410156 8.585938 -9.703125 8.203125 -9.890625 C 7.828125 -10.085938 7.40625 -10.210938 6.9375 -10.265625 C 6.476562 -10.328125 6.050781 -10.359375 5.65625 -10.359375 C 5.40625 -10.359375 5.101562 -10.332031 4.75 -10.28125 C 4.394531 -10.226562 4.050781 -10.140625 3.71875 -10.015625 C 3.382812 -9.890625 3.101562 -9.710938 2.875 -9.484375 C 2.65625 -9.265625 2.546875 -8.988281 2.546875 -8.65625 C 2.546875 -8.25 2.707031 -7.941406 3.03125 -7.734375 C 3.351562 -7.523438 3.78125 -7.378906 4.3125 -7.296875 C 4.84375 -7.222656 5.421875 -7.164062 6.046875 -7.125 C 6.710938 -7.050781 7.375 -6.972656 8.03125 -6.890625 C 8.6875 -6.804688 9.28125 -6.660156 9.8125 -6.453125 C 10.351562 -6.242188 10.785156 -5.925781 11.109375 -5.5 C 11.429688 -5.070312 11.59375 -4.472656 11.59375 -3.703125 C 11.59375 -2.929688 11.410156 -2.296875 11.046875 -1.796875 C 10.679688 -1.304688 10.203125 -0.910156 9.609375 -0.609375 C 9.023438 -0.316406 8.398438 -0.113281 7.734375 0 C 7.066406 0.125 6.429688 0.1875 5.828125 0.1875 C 5.328125 0.1875 4.78125 0.140625 4.1875 0.046875 C 3.601562 -0.046875 3.035156 -0.210938 2.484375 -0.453125 C 1.929688 -0.691406 1.441406 -1.007812 1.015625 -1.40625 C 0.597656 -1.800781 0.304688 -2.296875 0.140625 -2.890625 Z M 0.140625 -2.890625 "/></g></g></g><g fill="#2d2d2d" fill-opacity="1"><g transform="translate(13.065115, 19.020227)"><g><path d="M 2.875 -11.203125 C 2.875 -10.878906 2.753906 -10.640625 2.515625 -10.484375 C 2.285156 -10.328125 2.035156 -10.25 1.765625 -10.25 C 1.484375 -10.25 1.226562 -10.328125 1 -10.484375 C 0.769531 -10.640625 0.65625 -10.878906 0.65625 -11.203125 L 0.65625 -11.453125 C 0.65625 -11.785156 0.769531 -12.03125 1 -12.1875 C 1.226562 -12.34375 1.484375 -12.421875 1.765625 -12.421875 C 2.035156 -12.421875 2.285156 -12.34375 2.515625 -12.1875 C 2.753906 -12.03125 2.875 -11.785156 2.875 -11.453125 Z M 0.671875 -8.828125 C 0.671875 -9.128906 0.785156 -9.359375 1.015625 -9.515625 C 1.253906 -9.679688 1.503906 -9.765625 1.765625 -9.765625 C 2.035156 -9.765625 2.285156 -9.679688 2.515625 -9.515625 C 2.742188 -9.359375 2.859375 -9.132812 2.859375 -8.84375 L 2.859375 -0.9375 C 2.859375 -0.613281 2.742188 -0.375 2.515625 -0.21875 C 2.285156 -0.0703125 2.035156 0 1.765625 0 C 1.503906 0 1.253906 -0.0703125 1.015625 -0.21875 C 0.785156 -0.375 0.671875 -0.613281 0.671875 -0.9375 Z M 0.671875 -8.828125 "/></g></g></g><g fill="#2d2d2d" fill-opacity="1"><g transform="translate(16.21101, 19.020227)"><g/></g></g><g fill="#2d2d2d" fill-opacity="1"><g transform="translate(20.71892, 19.020227)"><g><path d="M 3.3125 -10.359375 L 3.3125 -6.546875 L 9.453125 -6.546875 C 9.785156 -6.546875 10.035156 -6.445312 10.203125 -6.25 C 10.367188 -6.050781 10.453125 -5.835938 10.453125 -5.609375 C 10.453125 -5.367188 10.367188 -5.15625 10.203125 -4.96875 C 10.035156 -4.789062 9.785156 -4.703125 9.453125 -4.703125 L 3.3125 -4.703125 L 3.3125 -1.03125 C 3.3125 -0.695312 3.195312 -0.441406 2.96875 -0.265625 C 2.738281 -0.0859375 2.488281 0 2.21875 0 C 1.9375 0 1.679688 -0.0859375 1.453125 -0.265625 C 1.222656 -0.441406 1.109375 -0.691406 1.109375 -1.015625 L 1.109375 -11.09375 C 1.109375 -11.394531 1.234375 -11.65625 1.484375 -11.875 C 1.734375 -12.101562 2.023438 -12.21875 2.359375 -12.21875 L 9.8125 -12.21875 C 10.15625 -12.21875 10.410156 -12.117188 10.578125 -11.921875 C 10.742188 -11.734375 10.828125 -11.519531 10.828125 -11.28125 C 10.828125 -11.050781 10.742188 -10.835938 10.578125 -10.640625 C 10.410156 -10.453125 10.15625 -10.359375 9.8125 -10.359375 Z M 3.3125 -10.359375 "/></g></g></g><g fill="#2d2d2d" fill-opacity="1"><g transform="translate(31.825884, 19.020227)"><g><path d="M 8.921875 -9.765625 C 9.253906 -9.765625 9.519531 -9.671875 9.71875 -9.484375 C 9.914062 -9.296875 10.015625 -9.054688 10.015625 -8.765625 L 10.015625 -1 C 10.015625 -0.707031 9.914062 -0.46875 9.71875 -0.28125 C 9.519531 -0.09375 9.253906 0 8.921875 0 C 8.597656 0 8.347656 -0.0703125 8.171875 -0.21875 C 7.992188 -0.363281 7.882812 -0.5625 7.84375 -0.8125 C 7.40625 -0.457031 6.914062 -0.203125 6.375 -0.046875 C 5.84375 0.109375 5.335938 0.1875 4.859375 0.1875 C 3.929688 0.1875 3.128906 -0.0195312 2.453125 -0.4375 C 1.785156 -0.863281 1.273438 -1.457031 0.921875 -2.21875 C 0.566406 -2.988281 0.390625 -3.882812 0.390625 -4.90625 C 0.390625 -5.90625 0.585938 -6.78125 0.984375 -7.53125 C 1.378906 -8.289062 1.929688 -8.882812 2.640625 -9.3125 C 3.347656 -9.738281 4.171875 -9.953125 5.109375 -9.953125 C 5.515625 -9.953125 5.96875 -9.875 6.46875 -9.71875 C 6.96875 -9.570312 7.425781 -9.332031 7.84375 -9 C 7.894531 -9.226562 8.007812 -9.410156 8.1875 -9.546875 C 8.375 -9.691406 8.617188 -9.765625 8.921875 -9.765625 Z M 5.078125 -1.75 C 5.640625 -1.75 6.179688 -1.875 6.703125 -2.125 C 7.234375 -2.375 7.609375 -2.738281 7.828125 -3.21875 L 7.828125 -6.546875 C 7.585938 -7.015625 7.222656 -7.375 6.734375 -7.625 C 6.242188 -7.882812 5.75 -8.015625 5.25 -8.015625 C 4.445312 -8.015625 3.800781 -7.71875 3.3125 -7.125 C 2.820312 -6.539062 2.578125 -5.796875 2.578125 -4.890625 C 2.578125 -3.941406 2.804688 -3.179688 3.265625 -2.609375 C 3.722656 -2.035156 4.328125 -1.75 5.078125 -1.75 Z M 5.078125 -1.75 "/></g></g></g><g fill="#2d2d2d" fill-opacity="1"><g transform="translate(42.913668, 19.020227)"><g><path d="M 7.578125 -7.140625 C 7.285156 -7.484375 6.941406 -7.722656 6.546875 -7.859375 C 6.148438 -8.003906 5.757812 -8.078125 5.375 -8.078125 C 4.53125 -8.078125 3.851562 -7.785156 3.34375 -7.203125 C 2.832031 -6.617188 2.578125 -5.835938 2.578125 -4.859375 C 2.578125 -3.910156 2.835938 -3.144531 3.359375 -2.5625 C 3.890625 -1.988281 4.585938 -1.703125 5.453125 -1.703125 C 5.835938 -1.703125 6.226562 -1.769531 6.625 -1.90625 C 7.019531 -2.039062 7.367188 -2.265625 7.671875 -2.578125 C 7.953125 -2.859375 8.226562 -3.003906 8.5 -3.015625 C 8.78125 -3.023438 9.007812 -2.945312 9.1875 -2.78125 C 9.363281 -2.613281 9.460938 -2.398438 9.484375 -2.140625 C 9.503906 -1.878906 9.394531 -1.613281 9.15625 -1.34375 C 8.65625 -0.789062 8.082031 -0.394531 7.4375 -0.15625 C 6.789062 0.0703125 6.125 0.1875 5.4375 0.1875 C 4.425781 0.1875 3.535156 -0.0195312 2.765625 -0.4375 C 2.003906 -0.863281 1.410156 -1.453125 0.984375 -2.203125 C 0.566406 -2.960938 0.359375 -3.835938 0.359375 -4.828125 C 0.359375 -5.867188 0.566406 -6.769531 0.984375 -7.53125 C 1.398438 -8.300781 1.984375 -8.894531 2.734375 -9.3125 C 3.492188 -9.738281 4.375 -9.953125 5.375 -9.953125 C 6.070312 -9.953125 6.722656 -9.84375 7.328125 -9.625 C 7.941406 -9.414062 8.503906 -9.007812 9.015625 -8.40625 C 9.242188 -8.132812 9.34375 -7.867188 9.3125 -7.609375 C 9.28125 -7.359375 9.164062 -7.148438 8.96875 -6.984375 C 8.78125 -6.816406 8.554688 -6.734375 8.296875 -6.734375 C 8.035156 -6.742188 7.796875 -6.878906 7.578125 -7.140625 Z M 7.578125 -7.140625 "/></g></g></g><g fill="#2d2d2d" fill-opacity="1"><g transform="translate(52.505151, 19.020227)"><g><path d="M 6.34375 -9.953125 C 7.238281 -9.953125 8 -9.753906 8.625 -9.359375 C 9.257812 -8.972656 9.742188 -8.4375 10.078125 -7.75 C 10.410156 -7.0625 10.578125 -6.253906 10.578125 -5.328125 L 10.578125 -1 C 10.578125 -0.707031 10.484375 -0.46875 10.296875 -0.28125 C 10.109375 -0.09375 9.835938 0 9.484375 0 C 9.160156 0 8.894531 -0.09375 8.6875 -0.28125 C 8.488281 -0.46875 8.390625 -0.707031 8.390625 -1 L 8.390625 -5.375 C 8.390625 -6.164062 8.195312 -6.804688 7.8125 -7.296875 C 7.4375 -7.796875 6.847656 -8.046875 6.046875 -8.046875 C 5.796875 -8.046875 5.507812 -7.988281 5.1875 -7.875 C 4.863281 -7.769531 4.546875 -7.59375 4.234375 -7.34375 C 3.929688 -7.101562 3.675781 -6.789062 3.46875 -6.40625 C 3.269531 -6.019531 3.171875 -5.546875 3.171875 -4.984375 L 3.171875 -1 C 3.171875 -0.707031 3.078125 -0.46875 2.890625 -0.28125 C 2.703125 -0.09375 2.4375 0 2.09375 0 C 1.75 0 1.472656 -0.09375 1.265625 -0.28125 C 1.054688 -0.46875 0.953125 -0.707031 0.953125 -1 L 0.953125 -11.5 C 0.953125 -11.789062 1.070312 -12.015625 1.3125 -12.171875 C 1.550781 -12.335938 1.804688 -12.421875 2.078125 -12.421875 C 2.359375 -12.421875 2.609375 -12.335938 2.828125 -12.171875 C 3.054688 -12.015625 3.171875 -11.789062 3.171875 -11.5 L 3.171875 -8.890625 C 3.691406 -9.335938 4.234375 -9.625 4.796875 -9.75 C 5.359375 -9.882812 5.875 -9.953125 6.34375 -9.953125 Z M 6.34375 -9.953125 "/></g></g></g><g fill="#2d2d2d" fill-opacity="1"><g transform="translate(64.149249, 19.020227)"><g><path d="M 5.1875 -9.765625 C 5.53125 -9.765625 5.800781 -9.691406 6 -9.546875 C 6.207031 -9.398438 6.3125 -9.160156 6.3125 -8.828125 C 6.3125 -8.515625 6.207031 -8.269531 6 -8.09375 C 5.800781 -7.914062 5.53125 -7.828125 5.1875 -7.828125 C 4.375 -7.828125 3.804688 -7.539062 3.484375 -6.96875 C 3.160156 -6.394531 3 -5.613281 3 -4.625 L 3 -0.984375 C 3 -0.703125 2.894531 -0.46875 2.6875 -0.28125 C 2.476562 -0.09375 2.226562 0 1.9375 0 C 1.601562 0 1.332031 -0.09375 1.125 -0.28125 C 0.925781 -0.46875 0.828125 -0.703125 0.828125 -0.984375 L 0.828125 -8.78125 C 0.828125 -9.09375 0.941406 -9.332031 1.171875 -9.5 C 1.410156 -9.675781 1.664062 -9.765625 1.9375 -9.765625 C 2.207031 -9.765625 2.453125 -9.679688 2.671875 -9.515625 C 2.890625 -9.347656 3 -9.101562 3 -8.78125 L 3 -8.671875 C 3.28125 -9.046875 3.601562 -9.320312 3.96875 -9.5 C 4.34375 -9.675781 4.75 -9.765625 5.1875 -9.765625 Z M 5.1875 -9.765625 "/></g></g></g><g clip-path="url(#ff4f733941)"><g fill="#2d2d2d" fill-opacity="1"><g transform="translate(69.88489, 19.020227)"><g><path d="M 8.9375 -9.765625 C 9.269531 -9.765625 9.554688 -9.617188 9.796875 -9.328125 C 10.035156 -9.046875 10.082031 -8.710938 9.9375 -8.328125 L 4.34375 2.671875 C 4.207031 2.910156 4.039062 3.097656 3.84375 3.234375 C 3.644531 3.378906 3.4375 3.453125 3.21875 3.453125 C 3 3.453125 2.796875 3.378906 2.609375 3.234375 C 2.429688 3.085938 2.304688 2.898438 2.234375 2.671875 C 2.160156 2.441406 2.191406 2.195312 2.328125 1.9375 L 3.78125 -0.9375 L 0 -8.25 C -0.113281 -8.507812 -0.128906 -8.753906 -0.046875 -8.984375 C 0.0351562 -9.210938 0.171875 -9.398438 0.359375 -9.546875 C 0.554688 -9.691406 0.769531 -9.765625 1 -9.765625 C 1.207031 -9.765625 1.40625 -9.695312 1.59375 -9.5625 C 1.78125 -9.4375 1.921875 -9.273438 2.015625 -9.078125 L 4.96875 -3.296875 L 7.921875 -9.09375 C 8.015625 -9.300781 8.148438 -9.460938 8.328125 -9.578125 C 8.503906 -9.703125 8.707031 -9.765625 8.9375 -9.765625 Z M 8.9375 -9.765625 "/></g></g></g></g></g></g><g clip-path="url(#77644df68e)"><g clip-path="url(#b498c4e423)"><g clip-path="url(#586af027e0)"><path fill="#737373" d="M 93.570312 6.195312 L 87.128906 5.910156 C 85.882812 5.855469 85.675781 8.277344 87.148438 8.316406 L 91.15625 8.425781 L 90.851562 12.460938 C 90.757812 13.6875 93.152344 13.816406 93.222656 12.570312 Z M 93.570312 6.195312 " fill-opacity="1" fill-rule="nonzero"/></g></g></g><g clip-path="url(#783a5feda9)"><g clip-path="url(#712890d5dc)"><g clip-path="url(#4d09fddc29)"><path fill="#2d2d2d" d="M 97.34375 2.277344 L 90.902344 1.988281 C 89.660156 1.933594 89.449219 4.359375 90.921875 4.398438 L 94.933594 4.507812 L 94.625 8.539062 C 94.53125 9.769531 96.929688 9.898438 96.996094 8.648438 Z M 97.34375 2.277344 " fill-opacity="1" fill-rule="nonzero"/></g></g></g></svg>